<svg xmlns="http://www.w3.org/2000/svg" xmlns:xlink="http://www.w3.org/1999/xlink" viewBox="0,0,256,256" width="50px" height="50px"><g fill="#ffffff" fill-rule="nonzero" stroke="none" stroke-width="1" stroke-linecap="butt" stroke-linejoin="miter" stroke-miterlimit="10" stroke-dasharray="" stroke-dashoffset="0" font-family="none" font-weight="none" font-size="none" text-anchor="none" style="mix-blend-mode: normal"><g transform="scale(5.12,5.12)"><path d="M43.81836,1c0,0 -3.69478,0.05568 -8.11328,1.18945c-4.4185,1.13377 -9.66781,3.33936 -12.74023,7.84766c-0.0167,0.02404 -0.03234,0.04881 -0.04687,0.07422l-5.02734,8.96094c-0.52505,-0.0395 -1.06745,-0.07009 -1.63672,-0.07227c-3.66973,-0.01355 -8.84692,0.87952 -13.04883,6.39453c-0.2299,0.30232 -0.26871,0.70877 -0.10018,1.04914c0.16853,0.34036 0.5153,0.5559 0.89511,0.55633h1.75c2.31922,0 4.79283,0.38264 6.91211,1.39453l-0.27344,0.48633c-0.76992,1.36438 -0.341,3.1192 0.97461,3.97656l1.26758,0.8418c-0.36523,0.38215 -0.70474,0.80052 -1.00781,1.26172c-1.15311,1.74343 -2.09227,4.38111 -2.46484,6.9375c-0.18629,1.2782 -0.22865,2.53204 -0.02344,3.66211c0.20521,1.13007 0.67888,2.19618 1.62891,2.84766c0.94812,0.64927 2.1113,0.69613 3.2207,0.46094c1.1094,-0.23519 2.2329,-0.74861 3.32422,-1.4082c2.18263,-1.31919 4.22473,-3.20433 5.37695,-4.95117c0.00065,-0.0013 0.0013,-0.0026 0.00195,-0.00391c0.33333,-0.51017 0.60853,-1.04211 0.82617,-1.58594l0.86523,0.57422c0.00065,0 0.0013,0 0.00195,0c1.1704,0.7714 2.70601,0.63264 3.72266,-0.27539c2.21676,2.43433 3.27584,5.30589 3.96094,7.13281c0.12794,0.34089 0.43104,0.5853 0.7913,0.6381c0.36026,0.0528 0.72074,-0.09436 0.94113,-0.3842c2.49487,-3.28272 3.20313,-6.34714 3.20313,-9.60547c0,-2.6561 -0.89274,-4.86291 -1.67773,-6.53516l6.77539,-8.28125c0.01794,-0.02269 0.03488,-0.04615 0.05078,-0.07031c2.20698,-3.23578 2.87024,-7.07469 2.85156,-10.61914c-0.03321,-6.31963 -2.23633,-11.86133 -2.23633,-11.86133c-0.15277,-0.38706 -0.52924,-0.63908 -0.94531,-0.63281zM43.11328,3.05273c0.33941,0.92088 1.85906,5.19044 1.88672,10.45312c0.01729,3.28122 -0.60897,6.69256 -2.49805,9.46875l-13.61328,16.64258c-0.00065,0.00065 -0.0013,0.0013 -0.00195,0.00195c-0.33401,0.40992 -0.94954,0.5048 -1.4043,0.20508l-13.01953,-8.63672c-0.00259,-0.00197 -0.0052,-0.00392 -0.00781,-0.00586c-0.46383,-0.30222 -0.5929,-0.84495 -0.32422,-1.32031c0.00065,-0.00065 0.0013,-0.0013 0.00195,-0.00195l10.49805,-18.71094c2.64099,-3.86065 7.40374,-5.95185 11.57227,-7.02148c3.49581,-0.89701 6.02597,-1.03795 6.91016,-1.07422zM33.5,11c-3.57801,0 -6.5,2.92199 -6.5,6.5c0,3.57801 2.92199,6.5 6.5,6.5c3.57801,0 6.5,-2.92199 6.5,-6.5c0,-3.57801 -2.92199,-6.5 -6.5,-6.5zM33.5,13c2.49713,0 4.5,2.00287 4.5,4.5c0,2.49713 -2.00287,4.5 -4.5,4.5c-2.49713,0 -4.5,-2.00287 -4.5,-4.5c0,-2.49713 2.00287,-4.5 4.5,-4.5zM16.24609,21c0.18629,0.0007 0.36817,0.01324 0.55273,0.01953l-3.15625,5.62695c-2.33065,-1.13673 -4.91314,-1.53421 -7.33203,-1.58984c3.39304,-3.40835 6.99954,-4.06748 9.93555,-4.05664zM35.90039,34.20313c0.5874,1.39658 1.09961,2.99966 1.09961,4.79688c0,2.39025 -0.6055,4.47575 -1.89453,6.71094c-0.74406,-1.82059 -1.76646,-3.98605 -3.68945,-6.02734zM16.95117,35.23828l6.28906,4.17383c-0.7266,0.91628 -2.02901,2.04232 -3.37109,2.76563c-0.75143,0.40498 -1.50701,0.68529 -2.12305,0.78125c-0.61604,0.09596 -1.04407,0.01505 -1.32617,-0.17383c-0.2826,-0.19143 -0.51859,-0.55693 -0.66211,-1.16211c-0.1438,-0.60638 -0.16989,-1.4113 -0.07812,-2.25977c0.16162,-1.49449 0.70391,-3.10018 1.27148,-4.125zM13.63281,39.99219c-0.02575,0.72103 0.02018,1.42741 0.17774,2.0918c0.21866,0.92205 0.67149,1.80645 1.49414,2.36133c0.00065,0.00065 0.0013,0.0013 0.00195,0.00195c0.8239,0.55163 1.81214,0.63407 2.74805,0.48828c0.8293,-0.12918 1.65463,-0.43863 2.45508,-0.8418c-0.7064,0.60719 -1.46264,1.18981 -2.23437,1.65625c-0.95843,0.57928 -1.91954,0.99753 -2.70508,1.16406c-0.78554,0.16653 -1.3279,0.08393 -1.67578,-0.1543c-0.35147,-0.24102 -0.64487,-0.74106 -0.79297,-1.55664c-0.1481,-0.81558 -0.12931,-1.8872 0.03516,-3.01562c0.10563,-0.72479 0.28801,-1.46537 0.49609,-2.19531z"></path></g></g></svg>